# xmcd
#
# Track frame offsets:
#	150
#	11619
#	25901
#	37945
#	49736
#	64417
#	77977
#	88543
#	102214
#	115035
#	129543
#	146240
#	155176
#	169952
#
# Disc length: 2487 seconds
#
# Revision: 1
# Processed by: cddbd v1.5.2PL0 Copyright (c) Steve Scherf et al.
# Submitted via: audiograbber 1.83.01
#
DISCID=be09b50e
DTITLE=George Strait - The Best of Pickin' On - The Ultimate Country Tribute
DYEAR=1900
DGENRE=Country
TTITLE0=All My Ex's Live In Texas
TTITLE1=Fool Hearted Memory
TTITLE2=Check Yes or No
TTITLE3=Ace In The Hole
TTITLE4=Does Fort Worth Ever Cross Your Mind
TTITLE5=Love Without End, Amen
TTITLE6=Am I Blue
TTITLE7=Amarillo By Morning
TTITLE8=The Chair
TTITLE9=You're Something Special To Me
TTITLE10=Drinking Champagne
TTITLE11=The Fireman
TTITLE12=Adalida
TTITLE13=Murder on Music Row
EXTD=
EXTT0=
EXTT1=
EXTT2=
EXTT3=
EXTT4=
EXTT5=
EXTT6=
EXTT7=
EXTT8=
EXTT9=
EXTT10=
EXTT11=
EXTT12=
EXTT13=
PLAYORDER=
